<?xml version="1.0" encoding="UTF-8"?>
<svg xmlns="http://www.w3.org/2000/svg" viewBox="0 0 512 512" width="512" height="512"><g id="Solid"><path d="M392,24H120a96,96,0,0,0-96,96V392a96,96,0,0,0,96,96H392a96,96,0,0,0,96-96V120A96,96,0,0,0,392,24ZM96.035,104.033a8,8,0,0,1,8-8L216,96l0,16-92.659.029,106.3,106.3L218.33,229.644l-106.3-106.3L112,216l-16,0ZM216,400l0,16-111.965-.035a8,8,0,0,1-8-8L96,296l16,0,.029,92.659L218.343,282.343l11.314,11.314L123.343,399.971Zm199.963,7.967a8,8,0,0,1-8,8L296,416l0-16,92.659-.029L282.33,293.644l11.314-11.314L399.971,388.657,400,296l16,0ZM400,216V123.313L293.657,229.657l-11.314-11.314L388.687,112H296l0-16,111.965.035a8,8,0,0,1,8,8L416,216Z"/></g></svg>
