<?xml version="1.0" encoding="utf-8"?>
<!-- Generator: Adobe Illustrator 24.3.0, SVG Export Plug-In . SVG Version: 6.00 Build 0)  -->
<svg version="1.1" id="Layer_1" xmlns="http://www.w3.org/2000/svg" xmlns:xlink="http://www.w3.org/1999/xlink" x="0px" y="0px"
	 viewBox="0 0 314.2 200.1" style="enable-background:new 0 0 314.2 200.1;" xml:space="preserve">
<style type="text/css">
	.st0{fill:#FE4900;}
	.st1{fill:none;}
</style>
<g id="Layer_2_1_">
	<g id="Layer_1-2">
		<path class="st0" d="M314.2,23.9l-7.1-17.6L121.3,81C110.7,69.4,92.6,68.6,81,79.2s-12.4,28.7-1.8,40.3
			c10.6,11.6,28.7,12.4,40.3,1.8c6.3-5.8,9.7-14.1,9.2-22.6l46.8-18.8c11.1,41.7-13.7,84.5-55.3,95.6s-84.5-13.7-95.6-55.3
			s13.7-84.5,55.3-95.6c19.2-5.1,39.5-2.7,57,6.6l10.3-19.3C98.6-14.2,38,4.1,11.9,52.8S4.1,162.1,52.8,188.1s109.3,7.8,135.4-40.9
			c12.4-23.2,15.2-50.3,7.8-75.6c0-0.1,0-0.1-0.1-0.2l51.5-20.7l16.8,41.7l14.9-6l-8.2-20.4l14.8-6l8.2,20.4l15.8-6.3l-16.8-41.6
			L314.2,23.9z M113.5,104.8c-2.5,7.3-10.5,11.2-17.8,8.7C88.4,111,84.5,103,87,95.7c2.5-7.3,10.5-11.2,17.8-8.7
			c3.8,1.3,6.9,4.2,8.4,8C114.5,98.2,114.6,101.7,113.5,104.8z"/>
		<path class="st1" d="M105.6,87.3c-7.1-3-15.3,0.4-18.3,7.6c-3,7.1,0.4,15.3,7.6,18.3c7.1,3,15.3-0.4,18.3-7.6
			c1.4-3.4,1.4-7.2,0.1-10.6C111.8,91.6,109.1,88.8,105.6,87.3z"/>
	</g>
</g>
</svg>
